<?xml version="1.0" encoding="UTF-8" standalone="no"?>
<!-- Created with Inkscape (http://www.inkscape.org/) -->

<svg
   version="1.1"
   id="svg1"
   width="381"
   height="310"
   viewBox="0 0 381 310"
   sodipodi:docname="logo3.png"
   xmlns:inkscape="http://www.inkscape.org/namespaces/inkscape"
   xmlns:sodipodi="http://sodipodi.sourceforge.net/DTD/sodipodi-0.dtd"
   xmlns="http://www.w3.org/2000/svg"
   xmlns:svg="http://www.w3.org/2000/svg">
  <defs
     id="defs1" />
  <sodipodi:namedview
     id="namedview1"
     pagecolor="#ffffff"
     bordercolor="#000000"
     borderopacity="0.25"
     inkscape:showpageshadow="2"
     inkscape:pageopacity="0.0"
     inkscape:pagecheckerboard="0"
     inkscape:deskcolor="#d1d1d1" />
  <g
     inkscape:groupmode="layer"
     inkscape:label="Image"
     id="g1">
    <path
       style="fill:#fed14d;stroke:none"
       d="m 92.316553,186.65619 h 54.924527 c 6.57849,-25.67761 55.52752,-25.61973 62.16733,0 h 54.92453 c 4.99714,-19.55721 6.7212,-39.20101 1.13884,-58.92338 -26.81837,-94.748779 -160.37043,-88.243717 -176.584098,10.24754 -2.747437,16.68953 -0.703784,32.50206 3.428871,48.67584 M 193.11212,128.37328 c 0,8.13457 1.85528,19.55011 -2.06809,26.85607 -5.89683,10.98086 -21.17503,10.4006 -26.07118,-1.2488 -3.06475,-7.29197 -1.43548,-17.77543 -1.43548,-25.60727 -20.54343,-8.7161 -0.25999,-35.959741 14.4856,-36.215151 14.90432,-0.25814 35.86622,27.397671 15.08915,36.215151 m -27.16048,-1.92142 v 14.09038 h 24.74622 v -14.09038 c 19.01889,-7.17875 0.34969,-31.341361 -12.6747,-31.191141 -12.92563,0.14908 -30.7469,24.142061 -12.07152,31.191141 m 12.26149,-21.25843 c 1.59229,-0.3377 3.3953,21.34903 0.22323,22.02178 -1.59228,0.3377 -3.39531,-21.34903 -0.22323,-22.02178 m -5.62226,3.9657 v 19.85462 c -4.01262,-1.68703 -4.01263,-18.16758 0,-19.85462 m 11.46776,0 c 7.04525,2.96205 -0.63416,33.70355 -0.6035,7.04519 0.003,-2.41981 0.10104,-4.6815 0.6035,-7.04519 M 166.5552,143.7446 c -1.12035,20.90651 24.03849,21.00229 23.53909,0 H 166.5552 m 7.2428,26.8998 c 4.04831,5.13057 9.47544,9.48393 11.46776,16.01179 h 21.12482 c -3.05522,-14.88947 -20.94863,-16 -32.59258,-16.01179 m -23.53909,16.01179 h 31.98902 c -5.20503,-17.05435 -28.09368,-18.98371 -31.98902,0 m -72.427948,12.16896 v 1.92141 h 4.224964 v 12.16896 h 2.414266 l -0.603567,-12.16896 4.828531,-1.92141 H 77.830962 m 12.674891,0 v 14.09037 h 2.41427 c -0.0958,-5.00468 2.24308,-6.15641 6.63923,-6.40471 v 6.40471 h 2.414257 l -0.60357,-14.09037 h -1.810687 v 6.40471 c -4.47456,-0.25261 -6.66252,-1.49076 -7.2428,-6.40471 h -1.8107 m 15.089157,0 0.60356,14.09037 h 6.63923 v -1.28094 h -4.82853 v -5.12377 h 4.22497 v -1.28095 h -4.22497 v -4.4833 h 4.82853 v -1.92141 h -7.24279 m 25.95335,12.80943 v -0.64047 c -9.42601,-0.0857 -10.22507,-11.35805 -1.20713,-8.96661 l 0.60356,-1.92141 c -13.17224,-3.86267 -12.50399,16.87915 0.60357,11.52849 m 2.41426,-12.80943 c 0.0102,16.65996 10.84619,16.56104 10.8642,0 h -2.41427 c 1.67684,13.14587 -6.52496,13.14522 -6.63923,0 h -1.8107 m 14.4856,0 0.60356,14.09037 7.2428,-0.64047 v -0.64047 h -5.4321 v -12.80943 h -2.41426 m 9.65706,0 0.60356,14.09037 h 1.8107 v -14.09037 h -2.41426 m 6.03566,0 0.60356,14.09037 h 1.8107 v -9.60707 h 0.60357 l 8.44993,9.60707 v -14.09037 h -1.8107 v 9.60707 l -9.65706,-9.60707 m 13.88202,14.09037 2.41427,-3.20236 c 2.79655,0.18918 4.45547,0.65435 6.03566,3.20236 h 2.41427 l -4.22497,-14.09037 c -4.02433,3.35311 -5.37865,9.02922 -6.63923,14.09037 m 13.27846,-14.09037 v 14.09037 h 2.41427 v -5.12377 l 7.24279,5.12377 c -3.32368,-6.75983 -0.48305,-13.49345 -9.65706,-14.09037 m 9.65706,0 4.22497,14.09037 h 2.41426 c -0.49328,-5.35883 1.54453,-9.34841 3.6214,-14.09037 l -4.22497,5.12377 h -1.20713 l -4.82853,-5.12377 m 18.10699,0 v 14.09037 h 1.8107 v -6.40471 h 7.2428 v 6.40471 h 1.81069 v -14.09037 h -2.41426 l 0.60357,6.40471 c -4.47451,-0.25261 -6.66257,-1.49075 -7.2428,-6.40471 h -1.8107 m 13.27846,14.09037 c 4.33174,-2.45481 6.52475,-2.4042 10.86419,0 l -4.22496,-14.09037 c -4.01277,3.3535 -5.27973,9.07306 -6.63923,14.09037 m 10.86419,-14.09037 5.4321,14.73084 h 1.20713 l 5.4321,-14.73084 c -3.54735,2.2464 -4.54395,6.37623 -6.03566,10.24754 -1.32287,-4.04794 -2.34033,-8.03749 -6.03567,-10.24754 m 13.88203,0 v 14.09037 h 7.24279 v -1.28094 h -4.82853 v -5.12377 h 3.6214 v -1.28095 h -3.6214 v -4.4833 h 4.82853 v -1.92141 h -7.24279 m 9.65706,0 0.60356,14.09037 h 1.8107 v -9.60707 h 0.60357 l 8.44993,9.60707 v -14.09037 h -1.8107 v 9.60707 l -9.65706,-9.60707 m -73.03152,7.04518 v -5.12377 c 3.21593,1.36907 2.88596,3.49904 0,5.12377 m -9.65706,-2.56188 1.20713,4.4833 h -3.6214 l 1.20713,-4.4833 h 1.20714 m 54.32096,0 1.20713,4.4833 h -3.62139 l 1.20713,-4.4833 h 1.20713 M 116.4592,225.08448 c 30.63585,35.3134 93.01134,34.78745 123.73109,0 z"
       id="path8" />
  </g>
</svg>
